<svg width="34" height="31" viewBox="0 0 34 31" fill="none" xmlns="http://www.w3.org/2000/svg">
<g clip-path="url(#clip0_10_2)">
<path d="M10.9419 7.36562V28C10.9419 28.6093 10.7358 29.1201 10.3237 29.5322C9.91147 29.9444 9.40072 30.1505 8.7914 30.1505C8.18208 30.1505 7.67133 29.9444 7.25914 29.5322C6.84695 29.1201 6.64086 28.6093 6.64086 28V7.36562L3.63011 10.3226C3.2 10.7527 2.69821 10.9588 2.12473 10.9409C1.55125 10.923 1.04946 10.699 0.619355 10.2689C0.22509 9.83875 0.0189964 9.328 0.00107527 8.7366C-0.0168459 8.1452 0.189247 7.65236 0.619355 7.2581L7.28602 0.645164C7.71613 0.215057 8.21792 3.8147e-06 8.7914 3.8147e-06C9.36487 3.8147e-06 9.86667 0.215057 10.2968 0.645164L16.9634 7.31186C17.3577 7.70613 17.5548 8.19896 17.5548 8.79036C17.5548 9.38176 17.3577 9.89251 16.9634 10.3226C16.5333 10.7527 16.0226 10.9678 15.4312 10.9678C14.8398 10.9678 14.329 10.7527 13.8989 10.3226L10.9419 7.36562Z" fill="#808080"/>
<path d="M22.5538 22.7849V2.15056C22.5538 1.54124 22.7599 1.03049 23.172 0.618305C23.5842 0.206119 24.095 2.47955e-05 24.7043 2.47955e-05C25.3136 2.47955e-05 25.8244 0.206119 26.2366 0.618305C26.6487 1.03049 26.8548 1.54124 26.8548 2.15056V22.7849L29.8656 19.8279C30.2957 19.3978 30.7975 19.1917 31.371 19.2097C31.9444 19.2276 32.4462 19.4516 32.8763 19.8817C33.2706 20.3118 33.4767 20.8226 33.4946 21.414C33.5125 22.0054 33.3065 22.4982 32.8763 22.8925L26.2097 29.5054C25.7796 29.9355 25.2778 30.1505 24.7043 30.1505C24.1308 30.1505 23.629 29.9355 23.1989 29.5054L16.5323 22.8387C16.138 22.4444 15.9409 21.9516 15.9409 21.3602C15.9409 20.7688 16.138 20.258 16.5323 19.8279C16.9624 19.3978 17.4731 19.1828 18.0645 19.1828C18.6559 19.1828 19.1667 19.3978 19.5968 19.8279L22.5538 22.7849Z" fill="#808080"/>
</g>
<defs>
<clipPath id="clip0_10_2">
<rect width="33.4957" height="30.1505" fill="white"/>
</clipPath>
</defs>
</svg>
