<svg width="18" height="31" viewBox="0 0 18 31" fill="none" xmlns="http://www.w3.org/2000/svg">
<g clip-path="url(#clip0_11_5)">
<path d="M10.9419 7.36562V28C10.9419 28.6093 10.7358 29.1201 10.3237 29.5322C9.91147 29.9444 9.40072 30.1505 8.7914 30.1505C8.18208 30.1505 7.67133 29.9444 7.25914 29.5322C6.84695 29.1201 6.64086 28.6093 6.64086 28V7.36562L3.63011 10.3226C3.2 10.7527 2.69821 10.9588 2.12473 10.9409C1.55125 10.923 1.04946 10.699 0.619355 10.2689C0.22509 9.83875 0.0189964 9.328 0.00107527 8.7366C-0.0168459 8.1452 0.189247 7.65236 0.619355 7.2581L7.28602 0.645164C7.71613 0.215057 8.21792 3.8147e-06 8.7914 3.8147e-06C9.36487 3.8147e-06 9.86667 0.215057 10.2968 0.645164L16.9634 7.31186C17.3577 7.70613 17.5548 8.19896 17.5548 8.79036C17.5548 9.38176 17.3577 9.89251 16.9634 10.3226C16.5333 10.7527 16.0226 10.9678 15.4312 10.9678C14.8398 10.9678 14.329 10.7527 13.8989 10.3226L10.9419 7.36562Z" fill="black"/>
</g>
<defs>
<clipPath id="clip0_11_5">
<rect width="17.5548" height="30.1505" fill="white"/>
</clipPath>
</defs>
</svg>
